<?xml version="1.0" encoding="UTF-8" standalone="no"?>
<!-- Created with Inkscape (http://www.inkscape.org/) -->

<svg
   xmlns:dc="http://purl.org/dc/elements/1.1/"
   xmlns:cc="http://creativecommons.org/ns#"
   xmlns:rdf="http://www.w3.org/1999/02/22-rdf-syntax-ns#"
   xmlns:svg="http://www.w3.org/2000/svg"
   xmlns="http://www.w3.org/2000/svg"
   xmlns:sodipodi="http://sodipodi.sourceforge.net/DTD/sodipodi-0.dtd"
   xmlns:inkscape="http://www.inkscape.org/namespaces/inkscape"
   width="115.45316"
   height="61.142426"
   viewBox="0 0 30.54698 16.177267"
   version="1.1"
   id="svg8"
   inkscape:version="0.92.4 5da689c313, 2019-01-14"
   sodipodi:docname="logo.svg">
  <defs
     id="defs2" />
  <sodipodi:namedview
     id="base"
     pagecolor="#ffffff"
     bordercolor="#666666"
     borderopacity="1.0"
     inkscape:pageopacity="0.0"
     inkscape:pageshadow="2"
     inkscape:zoom="6.146875"
     inkscape:cx="45.779147"
     inkscape:cy="21.270337"
     inkscape:document-units="mm"
     inkscape:current-layer="layer1"
     showgrid="false"
     fit-margin-top="0"
     fit-margin-left="0"
     fit-margin-right="0"
     fit-margin-bottom="0"
     inkscape:window-width="1366"
     inkscape:window-height="718"
     inkscape:window-x="1920"
     inkscape:window-y="0"
     inkscape:window-maximized="1"
     units="px" />
  <metadata
     id="metadata5">
    <rdf:RDF>
      <cc:Work
         rdf:about="">
        <dc:format>image/svg+xml</dc:format>
        <dc:type
           rdf:resource="http://purl.org/dc/dcmitype/StillImage" />
        <dc:title></dc:title>
      </cc:Work>
    </rdf:RDF>
  </metadata>
  <g
     inkscape:label="Vrstva 1"
     inkscape:groupmode="layer"
     id="layer1"
     transform="translate(-5.58699,-6.5196895)">
    <path
       style="fill:#fdfdfd;fill-opacity:1;fill-rule:evenodd;stroke:none;stroke-width:3.77952766;stroke-linecap:butt;stroke-linejoin:miter;stroke-miterlimit:4;stroke-dasharray:none;stroke-opacity:1;paint-order:markers stroke fill"
       d="M 92.763672 2.0371094 L 88.207031 2.6054688 L 90.078125 7.8945312 L 80.642578 14.888672 C 80.642578 14.888672 78.691562 7.0797352 65.107422 6.3476562 C 51.523286 5.6155765 46.478516 12.693359 46.478516 12.693359 L 34.033203 27.171875 C 34.033203 27.171875 32.569627 27.98564 31.105469 27.904297 C 29.64131 27.822961 10.607422 16.921875 10.607422 16.921875 L 25.736328 30.669922 C 25.736328 30.669922 17.521258 33.272515 15.650391 34.085938 C 13.779521 34.89936 6.1328125 40.105469 6.1328125 40.105469 L 9.5507812 40.105469 C 9.5507812 40.105469 14.512173 36.526309 16.871094 35.712891 C 19.230018 34.899468 25.980469 35.550781 25.980469 35.550781 C 25.980469 35.550781 23.053443 39.041819 21.996094 41.041016 C 20.534535 43.80447 18.822266 49.37718 18.822266 49.865234 C 18.822266 50.353285 22.380499 47.755476 23.378906 46.042969 C 24.128885 44.756576 23.513933 42.976393 24.191406 41.650391 C 24.924359 40.215841 27.527344 38.152344 27.527344 38.152344 C 26.268874 41.189119 25.062649 44.226897 24.761719 47.263672 L 29.478516 39.779297 C 29.478516 39.779297 29.966469 41.649695 29.234375 42.951172 C 28.502296 44.252645 27.119256 49.54032 27.363281 50.841797 C 27.607325 52.14327 27.492134 54.789049 27.078125 56.699219 C 26.837105 57.811299 25.818359 59.871094 25.818359 59.871094 C 25.818359 59.871094 27.444163 58.081228 27.769531 57.755859 C 28.094911 57.43048 28.931597 55.406546 29.193359 54.136719 C 29.450783 52.887967 29.089861 51.569173 29.316406 50.314453 C 29.527417 49.145812 30.022572 48.043473 30.455078 46.9375 C 30.963428 45.637581 31.504876 44.346597 32.162109 43.115234 C 32.930797 41.675057 34.765625 38.966797 34.765625 38.966797 C 34.765625 38.966797 43.305827 42.952895 45.746094 43.847656 C 48.186357 44.742422 56.810425 45.31112 59.332031 45.148438 C 61.853638 44.985767 67.790324 43.032861 69.091797 42.300781 C 70.393273 41.568706 75.011748 39.739241 77.226562 37.501953 C 79.098101 35.611422 80.64349 31.80802 81.212891 30.587891 C 81.78228 29.367757 82.67647 24.568939 82.757812 23.023438 C 82.83911 21.47794 82.431641 17.085937 82.431641 17.085938 L 93.414062 9.7636719 L 110.41406 14.238281 L 113.3418 10.089844 L 113.24414 9.8183594 L 94.226562 4.8027344 L 92.763672 2.0371094 z M 63.46875 8.34375 C 71.912384 8.4376844 79.511719 14.009002 79.511719 22.136719 C 79.511719 28.366937 75.283021 35.130237 69.824219 37.630859 C 64.552167 40.045932 53.619912 41.220273 48.082031 39.966797 C 41.10821 38.3883 35.511719 35.384075 35.511719 33.21875 C 35.511719 32.08025 36.395455 29.975459 37.476562 28.542969 C 38.557666 27.110482 41.43671 23.243067 43.873047 19.947266 C 46.309383 16.651465 50.674992 12.590399 53.574219 10.923828 C 56.732244 9.1084926 60.164719 8.306993 63.46875 8.34375 z "
       transform="matrix(0.26458333,0,0,0.26458333,5.58699,6.5196895)"
       id="path25" />
  </g>
</svg>
